# xmcd
#
# Track frame offsets:
#	150
#	1232
#	8880
#	10145
#	20770
#	22580
#	32862
#	34227
#	40282
#	41400
#	52115
#	53452
#	58977
#	60317
#	66505
#	67850
#	76870
#	78580
#	88677
#	89897
#	95825
#	96945
#	106355
#	107462
#	112445
#	113545
#	121270
#	122382
#
# Disc length: 1736 seconds
#
# Revision: 1
# Processed by: cddbd v1.5.1PL0 Copyright (c) Steve Scherf et al.
# Submitted via: CDex 1.50Beta5
#
DISCID=6d06c61c
DTITLE=Various Artist - おとのゆうえんち 2
DYEAR=1900
DGENRE=
TTITLE0=おさるのきしゃぽっぽ
TTITLE1=おさるのきしゃぽっぽ
TTITLE2=コロコロたまご
TTITLE3=コロコロたまご
TTITLE4=エレベーターでピンポン
TTITLE5=エレべーターでピンポン
TTITLE6=フルフルフル
TTITLE7=フルフルフル
TTITLE8=おさんぽねこにゃん
TTITLE9=おさんぽねこにゃん
TTITLE10=パタパタパンやさん
TTITLE11=パタパタパンやさん
TTITLE12=おりょうりてあそび
TTITLE13=おりょうりてあそび
TTITLE14=きつねのとうもろこし
TTITLE15=きつねのとうもろこし
TTITLE16=かぜのたくはいびん
TTITLE17=かぜのたくはいびん
TTITLE18=あかいぼうしのあかいはな
TTITLE19=あかいぼうしのあかいはな
TTITLE20=あめさんあそぼう
TTITLE21=あめさんあそぼう
TTITLE22=さよならパジャマ
TTITLE23=さよならパジャマ
TTITLE24=くまちゃんねむった
TTITLE25=くまちゃんねむった
TTITLE26=おまじないのうた
TTITLE27=おまじないのうた
EXTD=
EXTT0=
EXTT1=
EXTT2=
EXTT3=
EXTT4=
EXTT5=
EXTT6=
EXTT7=
EXTT8=
EXTT9=
EXTT10=
EXTT11=
EXTT12=
EXTT13=
EXTT14=
EXTT15=
EXTT16=
EXTT17=
EXTT18=
EXTT19=
EXTT20=
EXTT21=
EXTT22=
EXTT23=
EXTT24=
EXTT25=
EXTT26=
EXTT27=
PLAYORDER=
